<svg width="32" height="32" viewBox="0 0 32 32" fill="none" xmlns="http://www.w3.org/2000/svg">
<mask id="mask0_130_626" style="mask-type:alpha" maskUnits="userSpaceOnUse" x="0" y="0" width="32" height="32">
<rect width="32" height="32" fill="#D9D9D9"/>
</mask>
<g mask="url(#mask0_130_626)">
<path d="M15.9999 21.3332C16.3777 21.3332 16.6944 21.2054 16.9499 20.9498C17.2055 20.6943 17.3333 20.3776 17.3333 19.9998C17.3333 19.6221 17.2055 19.3054 16.9499 19.0498C16.6944 18.7943 16.3777 18.6665 15.9999 18.6665C15.6221 18.6665 15.3055 18.7943 15.0499 19.0498C14.7944 19.3054 14.6666 19.6221 14.6666 19.9998C14.6666 20.3776 14.7944 20.6943 15.0499 20.9498C15.3055 21.2054 15.6221 21.3332 15.9999 21.3332ZM14.6666 15.9998H17.3333V9.33317H14.6666V15.9998ZM15.9999 29.3332C12.911 28.5554 10.361 26.7832 8.34992 24.0165C6.33881 21.2498 5.33325 18.1776 5.33325 14.7998V6.6665L15.9999 2.6665L26.6666 6.6665V14.7998C26.6666 18.1776 25.661 21.2498 23.6499 24.0165C21.6388 26.7832 19.0888 28.5554 15.9999 29.3332ZM15.9999 26.5332C18.311 25.7998 20.2221 24.3332 21.7333 22.1332C23.2444 19.9332 23.9999 17.4887 23.9999 14.7998V8.49984L15.9999 5.49984L7.99992 8.49984V14.7998C7.99992 17.4887 8.75547 19.9332 10.2666 22.1332C11.7777 24.3332 13.6888 25.7998 15.9999 26.5332Z" fill="#1C1B1F"/>
</g>
</svg>
