<svg width="25" height="25" viewBox="0 0 25 25" fill="none" xmlns="http://www.w3.org/2000/svg">
<path fill-rule="evenodd" clip-rule="evenodd" d="M12.5 3.47998C15.44 3.47998 15.79 3.47998 16.95 3.54998C19.95 3.67998 21.32 5.09998 21.46 8.05998C21.51 9.21998 21.52 9.55998 21.52 12.5C21.52 15.44 21.52 15.79 21.46 16.94C21.32 19.94 19.93 21.32 16.95 21.45C15.79 21.51 15.44 21.52 12.5 21.52C9.56 21.52 9.21 21.52 8.06 21.45C5.06 21.31 3.68 19.9 3.55 16.94C3.49 15.79 3.48 15.44 3.48 12.5C3.48 9.55998 3.48 9.20998 3.55 8.05998C3.68 5.05998 5.07 3.67998 8.06 3.54998C9.21 3.48998 9.56 3.47998 12.5 3.47998ZM12.5 1.47998C9.5 1.47998 9.14 1.47998 7.96 1.54998C4 1.74998 1.75 3.99998 1.57 7.99998C1.51 9.13998 1.5 9.50998 1.5 12.5C1.5 15.49 1.5 15.86 1.57 17.04C1.75 21 4 23.25 8 23.43C9.18 23.49 9.55 23.5 12.54 23.5C15.53 23.5 15.9 23.5 17.08 23.43C21.08 23.25 23.29 21.03 23.47 17.04C23.53 15.86 23.54 15.49 23.54 12.5C23.54 9.50998 23.54 9.13998 23.47 7.95998C23.25 3.99998 21 1.74998 17 1.56998C15.82 1.50998 15.45 1.49998 12.46 1.49998M12.46 6.84998C11.3425 6.84998 10.2502 7.18135 9.32103 7.80218C8.39189 8.42301 7.66772 9.30542 7.24008 10.3378C6.81245 11.3702 6.70056 12.5062 6.91856 13.6022C7.13657 14.6982 7.67468 15.705 8.46485 16.4951C9.25501 17.2853 10.2617 17.8234 11.3577 18.0414C12.4537 18.2594 13.5898 18.1475 14.6222 17.7199C15.6546 17.2923 16.537 16.5681 17.1578 15.639C17.7786 14.7098 18.11 13.6174 18.11 12.5C18.11 11.0084 17.5203 9.57734 16.4693 8.5189C15.4184 7.46046 13.9915 6.86054 12.5 6.84998M12.5 16.17C11.7741 16.17 11.0646 15.9547 10.4611 15.5515C9.85753 15.1482 9.38714 14.575 9.10936 13.9044C8.83159 13.2338 8.75891 12.4959 8.90052 11.784C9.04213 11.0721 9.39166 10.4182 9.90492 9.9049C10.4182 9.39164 11.0721 9.04211 11.784 8.9005C12.4959 8.75889 13.2338 8.83157 13.9044 9.10934C14.5751 9.38712 15.1482 9.85751 15.5515 10.461C15.9548 11.0646 16.17 11.7741 16.17 12.5C16.17 13.4733 15.7833 14.4068 15.0951 15.0951C14.4068 15.7833 13.4733 16.17 12.5 16.17ZM18.37 5.30998C18.1089 5.30998 17.8537 5.3874 17.6366 5.53244C17.4196 5.67748 17.2504 5.88364 17.1505 6.12484C17.0506 6.36604 17.0244 6.63144 17.0754 6.8875C17.1263 7.14355 17.252 7.37876 17.4366 7.56336C17.6212 7.74797 17.8564 7.87368 18.1125 7.92462C18.3685 7.97555 18.6339 7.94941 18.8751 7.8495C19.1163 7.74959 19.3225 7.58041 19.4675 7.36333C19.6126 7.14626 19.69 6.89105 19.69 6.62998C19.69 6.27989 19.5509 5.94415 19.3034 5.6966C19.0558 5.44905 18.7201 5.30998 18.37 5.30998Z" fill="#3E4042"/>
</svg>
