<svg width="18" height="18" viewBox="0 0 18 18" fill="none" xmlns="http://www.w3.org/2000/svg">
<path d="M10.7283 10.2114L12.3455 11.0186C12.2688 11.4016 12.0616 11.7462 11.7593 11.9936C11.4569 12.2409 11.0781 12.3757 10.6875 12.3749C9.3453 12.3734 8.0585 11.8396 7.10942 10.8905C6.16034 9.94143 5.62649 8.65463 5.625 7.31243C5.62489 6.92228 5.75997 6.54415 6.00726 6.24237C6.25455 5.9406 6.59876 5.73384 6.98133 5.65727L7.78852 7.27446L7.10156 8.29681C7.05023 8.37381 7.01869 8.46229 7.00973 8.5544C7.00078 8.64651 7.01469 8.73941 7.05023 8.82485C7.45269 9.78137 8.21364 10.5423 9.17016 10.9448C9.25586 10.9819 9.34946 10.9971 9.44251 10.989C9.53556 10.9809 9.62512 10.9497 9.70312 10.8984L10.7283 10.2114ZM16.3125 8.99993C16.3128 10.2624 15.9862 11.5035 15.3645 12.6023C14.7429 13.7011 13.8473 14.6203 12.765 15.2703C11.6827 15.9203 10.4506 16.279 9.18854 16.3116C7.92647 16.3441 6.67748 16.0494 5.56312 15.456L3.16898 16.2541C2.97076 16.3202 2.75805 16.3298 2.55468 16.2818C2.35132 16.2338 2.16533 16.1301 2.01758 15.9823C1.86983 15.8346 1.76615 15.6486 1.71815 15.4452C1.67016 15.2419 1.67975 15.0292 1.74586 14.8309L2.54391 12.4368C2.02229 11.4561 1.73095 10.3695 1.692 9.25936C1.65305 8.14926 1.8675 7.04487 2.3191 6.03003C2.77069 5.01518 3.44754 4.11655 4.29829 3.40235C5.14903 2.68814 6.1513 2.17714 7.22902 1.90812C8.30674 1.63911 9.43158 1.61915 10.5182 1.84976C11.6047 2.08037 12.6245 2.5555 13.5001 3.23907C14.3756 3.92264 15.0839 4.79669 15.5712 5.79487C16.0585 6.79306 16.312 7.88914 16.3125 8.99993ZM13.5 10.6874C13.5001 10.5829 13.471 10.4805 13.4161 10.3916C13.3613 10.3026 13.2827 10.2308 13.1892 10.184L10.9392 9.05899C10.8507 9.01486 10.752 8.99487 10.6532 9.00104C10.5545 9.00721 10.4591 9.03933 10.3767 9.09415L9.34383 9.78321C8.86968 9.52256 8.47948 9.13236 8.21883 8.65821L8.90789 7.62532C8.96271 7.54294 8.99483 7.44755 9.001 7.34879C9.00717 7.25003 8.98718 7.15139 8.94305 7.06282L7.81805 4.81282C7.77142 4.71865 7.69934 4.63943 7.60999 4.58413C7.52064 4.52882 7.41758 4.49966 7.3125 4.49993C6.56658 4.49993 5.85121 4.79625 5.32376 5.32369C4.79632 5.85114 4.5 6.56651 4.5 7.31243C4.50186 8.95289 5.15435 10.5256 6.31433 11.6856C7.47431 12.8456 9.04704 13.4981 10.6875 13.4999C11.0568 13.4999 11.4226 13.4272 11.7638 13.2858C12.105 13.1445 12.4151 12.9373 12.6762 12.6762C12.9374 12.415 13.1446 12.105 13.2859 11.7637C13.4273 11.4225 13.5 11.0568 13.5 10.6874Z" fill="#B5B8C0"/>
</svg>
