<svg width="25" height="25" viewBox="0 0 25 25" fill="none" xmlns="http://www.w3.org/2000/svg">
<g clip-path="url(#clip0_130_698)">
<path d="M24.48 6.48C24.3349 5.95164 24.0549 5.4701 23.6674 5.08265C23.2799 4.6952 22.7984 4.41515 22.2701 4.27C20.32 3.75 12.5001 3.75 12.5001 3.75C12.5001 3.75 4.68005 3.75 2.73005 4.27C2.20169 4.41515 1.72015 4.6952 1.3327 5.08265C0.945248 5.4701 0.665203 5.95164 0.52005 6.48C0.162576 8.45975 -0.0114946 10.4683 5.03419e-05 12.48C-0.0114946 14.4917 0.162576 16.5002 0.52005 18.48C0.665203 19.0084 0.945248 19.4899 1.3327 19.8774C1.72015 20.2648 2.20169 20.5448 2.73005 20.69C4.68005 21.21 12.5001 21.21 12.5001 21.21C12.5001 21.21 20.32 21.21 22.2701 20.69C22.7984 20.5448 23.2799 20.2648 23.6674 19.8774C24.0549 19.4899 24.3349 19.0084 24.48 18.48C24.8375 16.5002 25.0116 14.4917 25 12.48C25.0116 10.4683 24.8375 8.45975 24.48 6.48ZM10.0001 16.25V8.75L16.49 12.5L10.0001 16.25Z" fill="#3E4042"/>
</g>
<defs>
<clipPath id="clip0_130_698">
<rect width="25" height="25" fill="white"/>
</clipPath>
</defs>
</svg>
