<svg width="32" height="32" viewBox="0 0 32 32" fill="none" xmlns="http://www.w3.org/2000/svg">
<mask id="mask0_130_614" style="mask-type:alpha" maskUnits="userSpaceOnUse" x="0" y="0" width="32" height="32">
<rect width="32" height="32" fill="#D9D9D9"/>
</mask>
<g mask="url(#mask0_130_614)">
<path d="M13.3338 24.0006C12.6005 24.0006 11.9727 23.7395 11.4505 23.2172C10.9283 22.695 10.6672 22.0672 10.6672 21.3339V19.6672C9.40051 18.8006 8.41718 17.6895 7.71718 16.3339C7.01718 14.9783 6.66718 13.5339 6.66718 12.0006C6.66718 9.40057 7.57273 7.19502 9.38384 5.3839C11.195 3.57279 13.4005 2.66724 16.0005 2.66724C18.6005 2.66724 20.8061 3.57279 22.6172 5.3839C24.4283 7.19502 25.3338 9.40057 25.3338 12.0006C25.3338 13.5339 24.9838 14.9728 24.2838 16.3172C23.5838 17.6617 22.6005 18.7784 21.3338 19.6672V21.3339C21.3338 22.0672 21.0727 22.695 20.5505 23.2172C20.0283 23.7395 19.4005 24.0006 18.6672 24.0006H13.3338ZM13.3338 21.3339H18.6672V18.2672L19.8005 17.4672C20.7116 16.845 21.4172 16.0506 21.9172 15.0839C22.4172 14.1172 22.6672 13.0895 22.6672 12.0006C22.6672 10.1561 22.0172 8.5839 20.7172 7.2839C19.4172 5.9839 17.845 5.3339 16.0005 5.3339C14.1561 5.3339 12.5838 5.9839 11.2838 7.2839C9.98384 8.5839 9.33384 10.1561 9.33384 12.0006C9.33384 13.0895 9.58384 14.1172 10.0838 15.0839C10.5838 16.0506 11.2894 16.845 12.2005 17.4672L13.3338 18.2672V21.3339ZM13.3338 29.3339C12.9561 29.3339 12.6394 29.2061 12.3838 28.9506C12.1283 28.695 12.0005 28.3784 12.0005 28.0006V26.6672H20.0005V28.0006C20.0005 28.3784 19.8727 28.695 19.6172 28.9506C19.3616 29.2061 19.045 29.3339 18.6672 29.3339H13.3338Z" fill="#1C1B1F"/>
</g>
</svg>
