<svg width="32" height="32" viewBox="0 0 32 32" fill="none" xmlns="http://www.w3.org/2000/svg">
<mask id="mask0_130_620" style="mask-type:alpha" maskUnits="userSpaceOnUse" x="0" y="0" width="32" height="32">
<rect width="32" height="32" fill="#D9D9D9"/>
</mask>
<g mask="url(#mask0_130_620)">
<path d="M10.6668 23.9998C9.93348 23.9998 9.3057 23.7387 8.78348 23.2165C8.26125 22.6943 8.00014 22.0665 8.00014 21.3332V5.33317C8.00014 4.59984 8.26125 3.97206 8.78348 3.44984C9.3057 2.92762 9.93348 2.6665 10.6668 2.6665H26.6668C27.4001 2.6665 28.0279 2.92762 28.5501 3.44984C29.0724 3.97206 29.3335 4.59984 29.3335 5.33317V21.3332C29.3335 22.0665 29.0724 22.6943 28.5501 23.2165C28.0279 23.7387 27.4001 23.9998 26.6668 23.9998H10.6668ZM10.6668 21.3332H26.6668V5.33317H10.6668V21.3332ZM5.33348 29.3332C4.60014 29.3332 3.97236 29.0721 3.45014 28.5498C2.92792 28.0276 2.66681 27.3998 2.66681 26.6665V7.99984H5.33348V26.6665H24.0001V29.3332H5.33348Z" fill="#1C1B1F"/>
</g>
</svg>
