<svg width="18" height="18" viewBox="0 0 18 18" fill="none" xmlns="http://www.w3.org/2000/svg">
<mask id="mask0_130_638" style="mask-type:alpha" maskUnits="userSpaceOnUse" x="0" y="0" width="18" height="18">
<rect width="18" height="18" fill="#D9D9D9"/>
</mask>
<g mask="url(#mask0_130_638)">
<path d="M12.375 8.25C12.1625 8.25 11.9844 8.17812 11.8406 8.03438C11.6969 7.89062 11.625 7.7125 11.625 7.5C11.625 7.2875 11.6969 7.10938 11.8406 6.96562C11.9844 6.82188 12.1625 6.75 12.375 6.75C12.5875 6.75 12.7656 6.82188 12.9094 6.96562C13.0531 7.10938 13.125 7.2875 13.125 7.5C13.125 7.7125 13.0531 7.89062 12.9094 8.03438C12.7656 8.17812 12.5875 8.25 12.375 8.25ZM10.5 6.4125L9.7125 5.625C10.075 5.2625 10.4844 4.98438 10.9406 4.79063C11.3969 4.59687 11.875 4.5 12.375 4.5C12.875 4.5 13.3531 4.59687 13.8094 4.79063C14.2656 4.98438 14.675 5.2625 15.0375 5.625L14.25 6.4125C14 6.1625 13.7156 5.96875 13.3969 5.83125C13.0781 5.69375 12.7375 5.625 12.375 5.625C12.0125 5.625 11.6719 5.69375 11.3531 5.83125C11.0344 5.96875 10.75 6.1625 10.5 6.4125ZM8.925 4.8L8.1375 4.0125C8.7 3.45 9.34688 3.01562 10.0781 2.70938C10.8094 2.40312 11.575 2.25 12.375 2.25C13.175 2.25 13.9406 2.40312 14.6719 2.70938C15.4031 3.01562 16.05 3.45 16.6125 4.0125L15.825 4.8C15.3625 4.3375 14.8344 3.98438 14.2406 3.74063C13.6469 3.49688 13.025 3.375 12.375 3.375C11.725 3.375 11.1063 3.5 10.5188 3.75C9.93125 4 9.4 4.35 8.925 4.8ZM14.9625 15.75C13.4 15.75 11.8563 15.4094 10.3313 14.7281C8.80625 14.0469 7.41875 13.0813 6.16875 11.8313C4.91875 10.5813 3.95313 9.19375 3.27188 7.66875C2.59063 6.14375 2.25 4.6 2.25 3.0375C2.25 2.8125 2.325 2.625 2.475 2.475C2.625 2.325 2.8125 2.25 3.0375 2.25H6.075C6.25 2.25 6.40625 2.30937 6.54375 2.42812C6.68125 2.54688 6.7625 2.6875 6.7875 2.85L7.275 5.475C7.3 5.675 7.29375 5.84375 7.25625 5.98125C7.21875 6.11875 7.15 6.2375 7.05 6.3375L5.23125 8.175C5.48125 8.6375 5.77813 9.08437 6.12188 9.51562C6.46563 9.94688 6.84375 10.3625 7.25625 10.7625C7.64375 11.15 8.05 11.5094 8.475 11.8406C8.9 12.1719 9.35 12.475 9.825 12.75L11.5875 10.9875C11.7 10.875 11.8469 10.7906 12.0281 10.7344C12.2094 10.6781 12.3875 10.6625 12.5625 10.6875L15.15 11.2125C15.325 11.2625 15.4688 11.3531 15.5813 11.4844C15.6938 11.6156 15.75 11.7625 15.75 11.925V14.9625C15.75 15.1875 15.675 15.375 15.525 15.525C15.375 15.675 15.1875 15.75 14.9625 15.75Z" fill="#B5B8C0"/>
</g>
</svg>
