<svg width="25" height="25" viewBox="0 0 25 25" fill="none" xmlns="http://www.w3.org/2000/svg">
<g clip-path="url(#clip0_130_700)">
<path d="M12.5 0.390625C5.81055 0.390625 0.390625 5.81055 0.390625 12.5C0.390625 19.1895 5.81055 24.6094 12.5 24.6094C19.1895 24.6094 24.6094 19.1895 24.6094 12.5C24.6094 5.81055 19.1895 0.390625 12.5 0.390625ZM18.4473 8.68652L16.46 18.0518C16.3135 18.7158 15.918 18.877 15.3662 18.5645L12.3389 16.333L10.8789 17.7393C10.7178 17.9004 10.5811 18.0371 10.2686 18.0371L10.4834 14.9561L16.0938 9.8877C16.3379 9.67285 16.04 9.55078 15.7178 9.76562L8.78418 14.1309L5.7959 13.1982C5.14648 12.9932 5.13184 12.5488 5.93262 12.2363L17.6074 7.73437C18.1494 7.53906 18.623 7.86621 18.4473 8.68652Z" fill="#3E4042"/>
</g>
<defs>
<clipPath id="clip0_130_700">
<rect width="25" height="25" fill="white"/>
</clipPath>
</defs>
</svg>
